<?xml version="1.0" encoding="utf-8"?>
<!-- Generator: Adobe Illustrator 28.1.0, SVG Export Plug-In . SVG Version: 6.00 Build 0)  -->
<svg version="1.1" id="Layer_1" xmlns="http://www.w3.org/2000/svg" xmlns:xlink="http://www.w3.org/1999/xlink" x="0px" y="0px"
	 viewBox="0 0 527.9 508.9" style="enable-background:new 0 0 527.9 508.9;" xml:space="preserve">
<style type="text/css">
	.st0{clip-path:url(#SVGID_00000050642745467718734870000001047585154419859594_);}
	.st1{fill:url(#Path_249_00000073704331250110467580000004281216435698880688_);}
	.st2{fill:url(#Path_250_00000176752732119446918970000007342456431395185815_);}
	.st3{fill:url(#Path_251_00000012459648835964243210000006738454926458788501_);}
	.st4{fill:url(#Path_252_00000153685559415670161240000000679269935024936889_);}
	.st5{fill:url(#Path_253_00000013150532947873384850000001848654656534478779_);}
	.st6{fill:url(#Path_254_00000129892880987401497450000017621281774174042531_);}
</style>
<g>
	<defs>
		<rect id="SVGID_1_" x="42.8" y="75.8" width="429.9" height="369.8"/>
	</defs>
	<clipPath id="SVGID_00000183962069790496501890000014526780298834332601_">
		<use xlink:href="#SVGID_1_"  style="overflow:visible;"/>
	</clipPath>
	<g id="Group_76" style="clip-path:url(#SVGID_00000183962069790496501890000014526780298834332601_);">
		
			<linearGradient id="Path_249_00000140721707936580805820000016061417908970232971_" gradientUnits="userSpaceOnUse" x1="-6.969" y1="5010.6689" x2="-6.969" y2="5009.6689" gradientTransform="matrix(254.1312 0 0 -209.8662 2116.6567 1051646.625)">
			<stop  offset="0" style="stop-color:#F7931D"/>
			<stop  offset="1" style="stop-color:#E32A3A"/>
		</linearGradient>
		<path id="Path_249" style="fill:url(#Path_249_00000140721707936580805820000016061417908970232971_);" d="M440.4,109
			c-43.1-43.1-112.9-43.1-155.9,0c0,0,0,0,0,0l-10.6,10.6c-0.1,0.2-0.2,0.5-0.3,0.7c-4.8,10-11.1,19.2-18.8,27.2
			c-7.8,8.1-16.9,15-26.9,20.2c-5.6,2.9-9.1,8.5-9.2,14.8c0,0.4,0,0.8,0,1.2c0.2,5.6,2.6,11,6.6,14.9l4.1,4.1c4,4,9.3,6.4,14.9,6.6
			c0.2,0,0.4,0,0.5,0c6.6,0,12.6-3.7,15.5-9.6c6.9-13.9,17-25.9,29.5-35c0.7-0.5,1.5-1.1,2.2-1.6c0.8-0.5,1.5-1,2.3-1.5
			c4.3-2.8,8.8-5.2,13.5-7.3c0.3-0.1,0.7-0.3,1-0.4l1.1,2.5l0,0l1.1,2.5c-4.4,1.9-8.7,4.1-12.7,6.6l117.9,117.9c1,1,1.8,2,2.6,3.1
			l21.6-21.6C483.4,221.9,483.4,152.1,440.4,109"/>
		
			<linearGradient id="Path_250_00000096743748908175928850000001688049682222407102_" gradientUnits="userSpaceOnUse" x1="-4.2248" y1="5006.9219" x2="-4.2248" y2="5005.9219" gradientTransform="matrix(375.9527 0 0 -342.6453 1818.4846 1715673.375)">
			<stop  offset="0" style="stop-color:#F7931D"/>
			<stop  offset="1" style="stop-color:#E32A3A"/>
		</linearGradient>
		<path id="Path_250" style="fill:url(#Path_250_00000096743748908175928850000001688049682222407102_);" d="M262.3,207.8
			L262.3,207.8c-4.6,4.5-10.8,7-17.3,7c-0.3,0-0.7,0-1,0c-7-0.3-13.6-3.2-18.6-8.2l-4.1-4.1c-5-4.9-7.9-11.6-8.2-18.6
			c-0.3-6.8,2.2-13.4,7-18.3l0,0c0.2-0.2,0.5-0.4,0.8-0.5l0,0c11.2-5.2,21.3-12.4,29.9-21.3c2.6-2.7,5.1-5.6,7.4-8.6L231,108.1
			C188.2,64.8,118.4,64.3,75.1,107S31.2,219.6,73.9,263c0.4,0.4,0.7,0.8,1.1,1.1l57.3,57.3c1.2-3.8,3.4-7.3,6.2-10.2l24.3-24.3
			c9.9-9.9,26-9.9,35.9,0c4.8,4.8,7.5,11.3,7.5,18c0,1.5-0.1,3-0.4,4.5c-0.2,1.2-0.5,2.4-0.9,3.5c13.3-4.4,27.7,2.8,32.1,16.1
			c1.7,5.2,1.7,10.8,0,16c13.3-4.4,27.7,2.8,32.1,16.1c1.7,5.2,1.7,10.8,0,16c2.6-0.8,5.3-1.3,8-1.3c14,0,25.4,11.3,25.4,25.3
			c0,0,0,0.1,0,0.1c0,0.5,0,0.9,0,1.4c-0.3,5.4-2.3,10.5-5.7,14.7c10.7,2.6,21.6-4,24.1-14.8c1.6-6.8-0.4-13.9-5.3-18.8l-92.2-92.2
			l3.8-3.8l92.2,92.2c1,1,2,1.8,3.2,2.6c9.3,6,21.7,3.4,27.7-5.8c4.3-6.7,4.3-15.3,0-21.9l-0.9-1.1l0.9,1.1
			c-0.7-1.1-1.6-2.2-2.6-3.2l0,0l-92.2-92.2l1.9-1.9l1.9-1.9l30.7,30.7l61.5,61.5c7.8,7.8,20.5,7.8,28.3-0.1
			c6.7-6.7,7.7-17.2,2.6-25.1c-0.3-0.5-0.7-1-1.1-1.5c-0.1-0.1-0.1-0.2-0.2-0.2c-0.4-0.5-0.9-1-1.3-1.5L318.7,258l-30.7-30.7
			l3.8-3.8l74.7,74.7l17.5,17.5c7.8,7.8,20.5,7.8,28.3,0s7.8-20.5,0-28.3L293.6,168.6c-6.6,4.7-12.6,10.3-17.7,16.6
			c-5.2,6.4-9.5,13.6-12.8,21.2c-0.2,0.4-0.3,0.7-0.6,1L262.3,207.8z"/>
		
			<linearGradient id="Path_251_00000089562126932485034470000008782299940003486100_" gradientUnits="userSpaceOnUse" x1="-31.9503" y1="5032.5508" x2="-31.9503" y2="5031.5508" gradientTransform="matrix(64.3417 0 0 -64.3145 2320.8862 324047.0312)">
			<stop  offset="0" style="stop-color:#F7931D"/>
			<stop  offset="1" style="stop-color:#E32A3A"/>
		</linearGradient>
		<path id="Path_251" style="fill:url(#Path_251_00000089562126932485034470000008782299940003486100_);" d="M291.5,387.1
			c-7.8-7.8-20.5-7.8-28.3,0l-0.3,0.3l-1.9,1.9l-1.9,1.9l-20.2,20.2c-2.9,2.9-4.9,6.7-5.6,10.8c-0.2,1.1-0.3,2.2-0.3,3.3
			c0,11,8.9,20,19.9,20c0,0,0.1,0,0.1,0c1.1,0,2.2-0.1,3.3-0.3c4.1-0.7,7.9-2.6,10.8-5.6l20.6-20.6l2-2l1.8-1.8
			c0.1-0.1,0.1-0.1,0.2-0.2C299.3,407.4,299.2,394.9,291.5,387.1"/>
		
			<linearGradient id="Path_252_00000009587050430153727640000001864449898447184306_" gradientUnits="userSpaceOnUse" x1="-31.9457" y1="5032.521" x2="-31.9457" y2="5031.521" gradientTransform="matrix(64.3505 0 0 -64.3749 2288.7314 324317.3125)">
			<stop  offset="0" style="stop-color:#F7931D"/>
			<stop  offset="1" style="stop-color:#E32A3A"/>
		</linearGradient>
		<path id="Path_252" style="fill:url(#Path_252_00000009587050430153727640000001864449898447184306_);" d="M255.2,387.4l3.8-3.8
			l0.3-0.3c7.8-7.8,7.8-20.5,0-28.3c-7.8-7.8-20.5-7.8-28.3-0.1L231,355l-0.3,0.3l-1.9,1.9l0,0l-1.9,1.9l0,0l-20.2,20.2
			c-3,2.9-4.9,6.7-5.6,10.8c-0.2,1.1-0.3,2.2-0.3,3.3c0,11,9,20,20,20c5.3,0,10.4-2.1,14.1-5.9L255.2,387.4z"/>
		
			<linearGradient id="Path_253_00000142177640481658158040000010444160051483852438_" gradientUnits="userSpaceOnUse" x1="-31.9527" y1="5032.5283" x2="-31.9527" y2="5031.5283" gradientTransform="matrix(64.337 0 0 -64.3602 2256.5991 324211.625)">
			<stop  offset="0" style="stop-color:#F7931D"/>
			<stop  offset="1" style="stop-color:#E32A3A"/>
		</linearGradient>
		<path id="Path_253" style="fill:url(#Path_253_00000142177640481658158040000010444160051483852438_);" d="M223.1,355.3l1.9-1.9
			l1.9-1.9l0.3-0.3c7.8-7.8,7.8-20.5,0-28.3c-7.8-7.8-20.5-7.8-28.3,0l-0.3,0.3l-1.9,1.9l-1.9,1.9l-20.2,20.2
			c-2.9,2.9-4.9,6.7-5.6,10.8c-0.2,1.1-0.3,2.2-0.3,3.3c0,11,8.9,20,20,20c5.3,0,10.4-2.1,14.2-5.9L223.1,355.3z"/>
		
			<linearGradient id="Path_254_00000137098348163063704340000016254691662427956123_" gradientUnits="userSpaceOnUse" x1="-31.9357" y1="5032.5298" x2="-31.9357" y2="5031.5298" gradientTransform="matrix(64.3696 0 0 -64.3571 2224.3887 324163.625)">
			<stop  offset="0" style="stop-color:#F7931D"/>
			<stop  offset="1" style="stop-color:#E32A3A"/>
		</linearGradient>
		<path id="Path_254" style="fill:url(#Path_254_00000137098348163063704340000016254691662427956123_);" d="M195,319
			c7.8-7.8,7.8-20.5,0-28.3c-7.8-7.8-20.5-7.8-28.3,0L142.4,315c-7.8,7.8-7.8,20.5,0,28.3c3.8,3.8,8.9,5.9,14.2,5.9
			c1.1,0,2.2-0.1,3.3-0.3c4.1-0.7,7.9-2.6,10.8-5.6L195,319z"/>
	</g>
</g>
</svg>
