<?xml version="1.0" encoding="utf-8"?>
<!-- Generator: Adobe Illustrator 28.1.0, SVG Export Plug-In . SVG Version: 6.00 Build 0)  -->
<svg version="1.1" id="Layer_1" xmlns="http://www.w3.org/2000/svg" xmlns:xlink="http://www.w3.org/1999/xlink" x="0px" y="0px"
	 viewBox="0 0 369.4 341.8" style="enable-background:new 0 0 369.4 341.8;" xml:space="preserve">
<style type="text/css">
	.st0{fill:#21252C;}
</style>
<g>
	<g>
		<path class="st0" d="M67.4,137.5c0-39.8,32.4-72.2,72.2-72.2c2,0,4,0.1,6,0.2c3.9,0.3,7.7,0.9,11.4,1.9
			c12.4,3.1,23.5,9.3,32.5,17.9c2.4,2.3,4.7,4.8,6.7,7.4c9.8,12.3,15.6,27.9,15.6,44.8s-5.8,32.5-15.6,44.8
			c8.8,8.5,20,14.4,32.5,16.5c12-17.4,19.1-38.6,19.1-61.3s-7-43.9-19.1-61.3c-2.1-3-4.3-6-6.8-8.8c-9-10.6-20-19.4-32.5-25.9
			c-3.7-1.9-7.4-3.6-11.3-5.1c-12-4.6-25-7.1-38.5-7.1C80,29.3,31.4,77.9,31.4,137.5v185.1h36V218c14.8,13.3,33.3,22.6,53.7,26.1
			v-36.8C90.3,199.1,67.4,170.9,67.4,137.5z"/>
		<path class="st0" d="M347.5,137.5c0,59.7-48.5,108.2-108.2,108.2c-13.6,0-26.5-2.5-38.5-7.1c-3.9-1.5-7.7-3.2-11.3-5.1
			c-8.1-4.2-15.6-9.5-22.4-15.5v104.6h-36V137.5c0-22.7,7.1-43.9,19.1-61.3c12.5,2.2,23.7,8.1,32.5,16.5
			c-9.8,12.3-15.6,27.9-15.6,44.8s5.8,32.5,15.6,44.8c2.1,2.6,4.3,5.1,6.8,7.4c8.9,8.5,20.1,14.8,32.5,17.9
			c3.7,0.9,7.5,1.5,11.4,1.9c2,0.2,4,0.2,6,0.2c39.8,0,72.2-32.4,72.2-72.2s-32.4-72.2-72.2-72.2c-2,0-4,0.1-6,0.2
			c-8.9-11.6-20-21.5-32.5-29.1c12-4.6,25-7.1,38.5-7.1C299,29.3,347.5,77.9,347.5,137.5z"/>
	</g>
</g>
</svg>
