<?xml version="1.0" encoding="utf-8"?>
<!-- Generator: Adobe Illustrator 28.3.0, SVG Export Plug-In . SVG Version: 6.00 Build 0)  -->
<svg version="1.1" id="Lager_1" xmlns="http://www.w3.org/2000/svg" xmlns:xlink="http://www.w3.org/1999/xlink" x="0px" y="0px"
	 viewBox="0 0 595.28 595.28" style="enable-background:new 0 0 595.28 595.28;" xml:space="preserve">
<style type="text/css">
	.st0{fill:#E0E3F3;}
	.st1{fill:#CBD5F8;}
</style>
<rect y="0" class="st0" width="595.28" height="595.28"/>
<g>
	<rect x="247.55" y="304.13" class="st1" width="97.7" height="74.17"/>
	<ellipse class="st1" cx="298.15" cy="201.87" rx="95.93" ry="125.5"/>
	<path class="st1" d="M172.78,386.98c22.34-0.07,43.88-26.89,66.22-26.96c18.88-0.06,39.76,13.6,58.64,13.54
		c22.6-0.07,40.02-10.48,62.63-10.55c19.41-0.06,42.82,23.27,62.23,23.21c0,69.39,0,138.77,0,208.16H172.78V386.98z"/>
	<polygon class="st1" points="296.4,373.01 258.07,422.32 219.74,363.05 240.97,333.17 	"/>
	<polygon class="st1" points="297.64,373.57 335.97,422.88 374.3,363.61 353.08,333.72 	"/>
	<path class="st1" d="M116.11,422.32c2.47-5.24,7.9-14.84,18.87-23.01c15.33-11.42,31.78-12.83,37.81-13.07
		c0,69.38,0,138.76,0,208.15h-88.8c2.88-33.37,7.94-69.9,16.24-108.87C104.97,463.23,110.35,442.14,116.11,422.32z"/>
	<path class="st1" d="M479.17,422.32c-2.47-5.24-7.9-14.84-18.87-23.01c-15.33-11.42-31.78-12.83-37.81-13.07
		c0,69.38,0,138.76,0,208.15h88.8c-2.88-33.37-7.94-69.9-16.24-108.87C490.31,463.23,484.92,442.14,479.17,422.32z"/>
	<path class="st1" d="M225.33,76.37L225.33,76.37l-3.12,10.27v5.25l-9.77,6.59c-4.63,3.12-8.58,7.04-11.67,11.54l-5.14,7.5
		c-2.27,3.32-3.83,7.02-4.6,10.9l-3.84,19.44c-0.59,2.99-0.81,6.04-0.65,9.08l1.07,20.4c0.11,2.12,0.41,4.23,0.89,6.3l8.06,34.88
		c0.23,0.99,0.55,1.96,0.95,2.9l11.16,25.77l0.22-30.18c0.05-6.23,1.34-12.39,3.8-18.18l2.93-6.87c2.2-5.17,5.6-9.81,9.95-13.59
		l4.4-3.83c3.2-2.79,7.05-4.84,11.23-6l9.54-2.65v0c-2.71,5.46-6.66,10.3-11.55,14.19l-4.04,3.21h0c6.39,0.55,12.84-0.24,18.87-2.31
		l17.75-6.09c2.45-0.84,4.81-1.92,7.02-3.21l32.26-18.77l-7.32,9.23c-1.39,1.76-2.97,3.38-4.72,4.83l-3.6,3
		c-1.15,0.96-2.36,1.84-3.64,2.63l-13.09,8.19l12.86-1.93c1.23-0.19,2.45-0.45,3.65-0.79l25.35-7.18c2.69-0.76,5.3-1.74,7.8-2.92
		l18.37-8.65c5.22-2.45,10.01-5.63,14.21-9.42l9.54-8.6l0,0c4.47,4.93,7.95,10.58,10.25,16.69l3.65,9.68
		c1.9,5.03,2.97,10.31,3.18,15.64l1.05,27.08c0.08,1.98,0.02,3.96-0.17,5.94l-2.95,30.84l14.95-32.94c0.43-0.94,0.81-1.9,1.16-2.88
		l6.32-18c0.93-2.66,1.55-5.41,1.84-8.2l2.57-24.83c0.15-1.45,0.19-2.91,0.1-4.37v0c-1.09-19.37-5.88-38.4-14.15-56.17v0
		c-0.48-1.04-1.13-2-1.93-2.85l-13.53-14.48c-2.71-2.9-5.99-5.29-9.66-7.02l-26.9-12.73c-2.48-1.17-5.04-2.19-7.67-3.03l-21.22-6.83
		c-3.8-1.22-7.76-1.96-11.78-2.18l-20.35-1.13c-2.2-0.12-4.42-0.06-6.61,0.2l-14.68,1.7c-3.87,0.45-7.62,1.58-11.04,3.34l-3.88,2
		C239.69,61.59,231.59,68.28,225.33,76.37z"/>
</g>
</svg>
